<svg width="42" height="42" viewBox="0 0 42 42" fill="none" xmlns="http://www.w3.org/2000/svg">
<path d="M26.0244 15.1421C26.0244 15.6944 26.4721 16.1421 27.0244 16.1421H36.0244C36.5767 16.1421 37.0244 15.6944 37.0244 15.1421C37.0244 14.5898 36.5767 14.1421 36.0244 14.1421H28.0244V6.14209C28.0244 5.58981 27.5767 5.14209 27.0244 5.14209C26.4721 5.14209 26.0244 5.58981 26.0244 6.14209V15.1421ZM27.7315 15.8492L41.8737 1.70706L40.4594 0.292847L26.3173 14.435L27.7315 15.8492Z" fill="#FFFFFF"/>
<path d="M16.0376 27.1289C16.0376 26.5766 15.5899 26.1289 15.0376 26.1289H6.03764C5.48536 26.1289 5.03764 26.5766 5.03764 27.1289C5.03764 27.6811 5.48536 28.1289 6.03764 28.1289H14.0376V36.1289C14.0376 36.6811 14.4854 37.1289 15.0376 37.1289C15.5899 37.1289 16.0376 36.6811 16.0376 36.1289V27.1289ZM1.60261 41.9781L15.7448 27.836L14.3305 26.4218L0.188401 40.5639L1.60261 41.9781Z" fill="#FFFFFF"/>
<path d="M15.0391 16.1421C15.5914 16.1421 16.0391 15.6944 16.0391 15.1421L16.039 6.14208C16.039 5.5898 15.5913 5.14209 15.039 5.14209C14.4867 5.14209 14.039 5.58981 14.039 6.1421L14.0391 14.1421L6.03906 14.1421C5.48677 14.1421 5.03906 14.5899 5.03906 15.1422C5.03907 15.6944 5.48678 16.1421 6.03907 16.1421L15.0391 16.1421ZM15.7462 14.435L1.60394 0.292929L0.189739 1.70715L14.332 15.8492L15.7462 14.435Z" fill="#FFFFFF"/>
<path d="M27.0249 26.1289C26.4726 26.1289 26.0249 26.5766 26.0249 27.1289V36.1289C26.0249 36.6811 26.4726 37.1289 27.0249 37.1289C27.5771 37.1289 28.0249 36.6811 28.0249 36.1289V28.1289H36.0249C36.5771 28.1289 37.0249 27.6811 37.0249 27.1289C37.0249 26.5766 36.5771 26.1289 36.0249 26.1289H27.0249ZM41.8741 40.5639L27.732 26.4218L26.3177 27.836L40.4599 41.9781L41.8741 40.5639Z" fill="#FFFFFF"/>
</svg>
