<svg width="43" height="43" viewBox="0 0 43 43" fill="none" xmlns="http://www.w3.org/2000/svg">
<path d="M42.6314 0.999954C42.6314 0.44767 42.1837 -4.57316e-05 41.6314 -4.57316e-05L32.6314 -4.57316e-05C32.0791 -4.57316e-05 31.6314 0.44767 31.6314 0.999954C31.6314 1.55224 32.0791 1.99995 32.6314 1.99995H40.6314V9.99995C40.6314 10.5522 41.0791 11 41.6314 11C42.1837 11 42.6314 10.5522 42.6314 9.99995V0.999954ZM28.1964 15.8492L42.3385 1.70706L40.9243 0.292847L26.7822 14.435L28.1964 15.8492Z" fill="#1E1E1E"/>
<path d="M0.360352 41.271C0.360352 41.8233 0.808067 42.271 1.36035 42.271H10.3604C10.9126 42.271 11.3604 41.8233 11.3604 41.271C11.3604 40.7187 10.9126 40.271 10.3604 40.271H2.36035V32.271C2.36035 31.7187 1.91264 31.271 1.36035 31.271C0.808067 31.271 0.360352 31.7187 0.360352 32.271L0.360352 41.271ZM2.06746 41.9781L16.2096 27.836L14.7954 26.4218L0.653245 40.5639L2.06746 41.9781Z" fill="#1E1E1E"/>
<path d="M1.36168 4.00991e-05C0.809394 4.3451e-05 0.361681 0.447761 0.361685 1.00005L0.361739 10C0.361743 10.5523 0.809461 11 1.36175 11C1.91403 11 2.36174 10.5523 2.36174 10L2.36169 2.00003L10.3617 1.99999C10.914 1.99998 11.3617 1.55226 11.3617 0.999979C11.3617 0.447695 10.914 -1.78751e-05 10.3617 -1.45232e-05L1.36168 4.00991e-05ZM16.211 14.435L2.06879 0.292929L0.654582 1.70715L14.7968 15.8492L16.211 14.435Z" fill="#1E1E1E"/>
<path d="M41.6318 42.271C42.1841 42.271 42.6318 41.8233 42.6318 41.271V32.271C42.6318 31.7187 42.1841 31.271 41.6318 31.271C41.0796 31.271 40.6318 31.7187 40.6318 32.271V40.271H32.6318C32.0796 40.271 31.6318 40.7187 31.6318 41.271C31.6318 41.8233 32.0796 42.271 32.6318 42.271H41.6318ZM42.3389 40.5639L28.1968 26.4218L26.7826 27.836L40.9247 41.9781L42.3389 40.5639Z" fill="#1E1E1E"/>
</svg>
