<svg width="51" height="51" viewBox="0 0 51 51" fill="none" xmlns="http://www.w3.org/2000/svg">
<line x1="11.541" y1="14.4106" x2="26.541" y2="14.4106" stroke="#1E1E1E"/>
<line x1="11.541" y1="38.4436" x2="36.541" y2="38.4436" stroke="#1E1E1E"/>
<line x1="36.041" y1="38.9436" x2="36.041" y2="23.9436" stroke="#1E1E1E"/>
<line x1="11.041" y1="38.9436" x2="11.041" y2="13.9436" stroke="#1E1E1E"/>
<path d="M39.2187 11.7659C39.2187 11.4898 38.9948 11.2659 38.7187 11.2659H34.2187C33.9425 11.2659 33.7187 11.4898 33.7187 11.7659C33.7187 12.0421 33.9425 12.2659 34.2187 12.2659L38.2187 12.2659V16.2659C38.2187 16.5421 38.4425 16.7659 38.7187 16.7659C38.9948 16.7659 39.2187 16.5421 39.2187 16.2659V11.7659ZM21.3946 29.7972L39.0722 12.1195L38.3651 11.4124L20.6875 29.0901L21.3946 29.7972Z" fill="black"/>
</svg>
